<svg width="120" height="120" viewBox="0 0 120 120" fill="none" xmlns="http://www.w3.org/2000/svg">
<path d="M103.333 16.6668C101.261 16.6727 99.2083 17.0773 97.2883 17.8584C96.6694 15.4605 95.5036 13.2384 93.8822 11.3663C92.2608 9.49431 90.228 8.02317 87.9429 7.06822C85.6579 6.11328 83.1827 5.70047 80.7114 5.86215C78.2402 6.02382 75.8399 6.75559 73.6987 8.00011C72.246 5.67758 70.2266 3.76254 67.8303 2.43497C65.434 1.1074 62.7395 0.410889 60 0.410889C57.2605 0.410889 54.566 1.1074 52.1697 2.43497C49.7734 3.76254 47.754 5.67758 46.3012 8.00011C43.8793 6.59626 41.1327 5.84939 38.3333 5.83344C34.0236 5.83344 29.8903 7.54549 26.8428 10.593C23.7954 13.6404 22.0833 17.7737 22.0833 22.0834V38.4743C17.4229 34.8895 11.7129 32.9367 5.83332 32.9168C4.39673 32.9168 3.01898 33.4875 2.00316 34.5033C0.987339 35.5191 0.416656 36.8969 0.416656 38.3334V70.8334C0.430994 83.7583 5.57174 96.1498 14.711 105.289C23.8503 114.428 36.2418 119.569 49.1667 119.583H70.8333C83.7582 119.569 96.1497 114.428 105.289 105.289C114.428 96.1498 119.569 83.7583 119.583 70.8334V38.3334C119.583 22.3597 111.187 16.6668 103.333 16.6668ZM108.75 70.8334C108.737 80.8856 104.738 90.5224 97.6302 97.6303C90.5222 104.738 80.8855 108.737 70.8333 108.75H49.1667C39.1145 108.737 29.4777 104.738 22.3698 97.6303C15.2618 90.5224 11.2629 80.8856 11.25 70.8334V44.6764C14.4161 45.8008 17.1568 47.8771 19.0963 50.6205C21.0359 53.364 22.0792 56.6403 22.0833 60.0001C22.0833 61.4367 22.654 62.8144 23.6698 63.8303C24.6857 64.8461 26.0634 65.4168 27.5 65.4168C28.9366 65.4168 30.3143 64.8461 31.3301 63.8303C32.346 62.8144 32.9167 61.4367 32.9167 60.0001V22.0834C32.9167 20.6469 33.4873 19.2691 34.5032 18.2533C35.519 17.2375 36.8967 16.6668 38.3333 16.6668C39.7699 16.6668 41.1477 17.2375 42.1635 18.2533C43.1793 19.2691 43.75 20.6469 43.75 22.0834V49.1668C43.75 50.6034 44.3207 51.9811 45.3365 52.9969C46.3523 54.0128 47.7301 54.5834 49.1667 54.5834C50.6032 54.5834 51.981 54.0128 52.9968 52.9969C54.0126 51.9811 54.5833 50.6034 54.5833 49.1668V16.6668C54.5833 15.2302 55.154 13.8524 56.1698 12.8366C57.1856 11.8208 58.5634 11.2501 60 11.2501C61.4366 11.2501 62.8143 11.8208 63.8301 12.8366C64.846 13.8524 65.4167 15.2302 65.4167 16.6668V49.1668C65.4167 50.6034 65.9873 51.9811 67.0032 52.9969C68.019 54.0128 69.3967 54.5834 70.8333 54.5834C72.2699 54.5834 73.6477 54.0128 74.6635 52.9969C75.6793 51.9811 76.25 50.6034 76.25 49.1668V22.0834C76.25 20.6469 76.8207 19.2691 77.8365 18.2533C78.8523 17.2375 80.2301 16.6668 81.6667 16.6668C83.1032 16.6668 84.481 17.2375 85.4968 18.2533C86.5126 19.2691 87.0833 20.6469 87.0833 22.0834V49.1668C87.0833 50.6034 87.654 51.9811 88.6698 52.9969C89.6856 54.0128 91.0634 54.5834 92.5 54.5834C93.9366 54.5834 95.3143 54.0128 96.3302 52.9969C97.346 51.9811 97.9167 50.6034 97.9167 49.1668V32.9168C97.9167 31.4802 98.4873 30.1024 99.5032 29.0866C100.519 28.0708 101.897 27.5001 103.333 27.5001C108.208 27.5001 108.75 35.0834 108.75 38.3334V70.8334Z" fill="black"/>
</svg>
