<svg width="130" height="114" viewBox="0 0 130 114" fill="none" xmlns="http://www.w3.org/2000/svg">
<path d="M103.813 12.0717C98.1254 3.4648 87.0279 1.33834 78.7239 6.08258C71.2403 -1.9076 58.6285 -1.81213 51.2172 6.07699C39.243 -0.783556 23.6151 7.36049 23.1171 21.516C11.3867 18.7634 0 27.547 0 39.5893V54.05C0 62.3632 3.62578 70.2884 9.94805 75.793L34.7572 97.3956C35.8368 98.3356 35.5469 98.8107 35.5469 105.75C35.5469 110.237 39.1846 113.875 43.6719 113.875H107.656C112.144 113.875 115.781 110.237 115.781 105.75C115.781 99.7798 115.524 97.9436 116.792 94.9919L127.668 69.6886C129.216 66.089 130 62.2817 130 58.3725V29.3147C130 15.8986 116.209 6.80291 103.813 12.0717ZM117.812 58.3725C117.814 60.6091 117.358 62.8224 116.471 64.8758L105.595 90.1789C104.267 93.2692 103.594 96.5367 103.594 99.8908V101.687H47.7344V99.0757C47.7344 94.9193 45.9215 90.9566 42.7604 88.2042L17.9512 66.6019C14.2883 63.4123 12.1875 58.8372 12.1875 54.0498V39.5891C12.1875 31.1573 25.3906 31.0738 25.3906 39.761V50.229C25.3906 50.8097 25.5151 51.3837 25.7557 51.9122C25.9963 52.4407 26.3474 52.9115 26.7853 53.2929L28.5627 54.8404C29.1506 55.3524 29.8735 55.6844 30.645 55.7967C31.4165 55.9091 32.204 55.7971 32.9136 55.4741C33.6231 55.1511 34.2248 54.6308 34.6467 53.9752C35.0686 53.3196 35.2929 52.5564 35.293 51.7768V22.1785C35.293 13.7749 48.4961 13.6155 48.4961 22.3503V29.1426C48.4961 31.3861 50.3151 33.2051 52.5586 33.2051H54.3359C56.5795 33.2051 58.3984 31.3861 58.3984 29.1426V18.6961C58.3984 10.2832 71.6016 10.1458 71.6016 18.868V29.1426C71.6016 31.3861 73.4203 33.2051 75.6641 33.2051H77.4414C79.6852 33.2051 81.5039 31.3861 81.5039 29.1426V22.1782C81.5039 13.7917 94.707 13.6012 94.707 22.3501V29.1423C94.707 31.3859 96.5258 33.2048 98.7695 33.2048H100.547C102.791 33.2048 104.609 31.3859 104.609 29.1423C104.609 20.7264 117.812 20.6078 117.812 29.3142V58.3725Z" fill="black"/>
</svg>
