<svg width="130" height="130" viewBox="0 0 130 130" fill="none" xmlns="http://www.w3.org/2000/svg">
<path d="M107.187 84.186C97.3698 84.186 88.985 90.395 85.7744 99.1248L71.9501 81.4796L128.733 8.98832C130.67 6.49411 130.378 3.20388 127.911 1.26689C125.416 -0.6701 122.126 -0.378225 120.189 2.08945L65.0778 72.6702L9.75413 2.08945C7.81714 -0.112883 4.50037 -0.6701 2.00616 1.26689C-0.196168 3.20388 -0.753385 6.52065 1.18361 8.98832L58.1259 81.4796L44.3812 99.0982C41.1705 90.395 32.8123 84.186 22.9947 84.186C10.391 84.186 0.201844 94.4017 0.201844 106.979C0.201844 119.556 10.4175 129.772 22.9947 129.772C30.6365 129.772 37.4027 126.004 41.542 120.219C41.7278 120.06 65.0513 90.2889 65.0513 90.2889C65.0513 90.2889 88.6136 120.352 88.9054 120.617C93.0713 126.19 99.7048 129.772 107.187 129.772C119.765 129.772 129.98 119.556 129.98 106.979C129.98 94.4017 119.791 84.186 107.187 84.186ZM22.9947 119.476C16.0958 119.476 10.5236 113.878 10.5236 107.005C10.5236 100.133 16.1223 94.5344 22.9947 94.5344C29.867 94.5344 35.4657 100.133 35.4657 107.005C35.4657 113.878 29.8935 119.476 22.9947 119.476ZM107.187 119.476C100.289 119.476 94.7164 113.878 94.7164 107.005C94.7164 100.133 100.315 94.5344 107.187 94.5344C114.06 94.5344 119.659 100.133 119.659 107.005C119.659 113.878 114.086 119.476 107.187 119.476Z" fill="black"/>
</svg>
